ffmpeg version 4.3.5-0+deb11u1+rpt3 Copyright (c) 2000-2022 the FFmpeg developers
  built with gcc 10 (Raspbian 10.2.1-6+rpi1)
  configuration: --prefix=/usr --extra-version=0+deb11u1+rpt3 --toolchain=hardened --incdir=/usr/include/arm-linux-gnueabihf --enable-gpl --disable-stripping --enable-avresample --disable-filter=resample --enable-gnutls --enable-ladspa --enable-libaom --enable-libass --enable-libbluray --enable-libbs2b --enable-libcaca --enable-libcdio --enable-libcodec2 --enable-libdav1d --enable-libflite --enable-libfontconfig --enable-libfreetype --enable-libfribidi --enable-libgme --enable-libgsm --enable-libjack --enable-libmp3lame --enable-libmysofa --enable-libopenjpeg --enable-libopenmpt --enable-libopus --enable-libpulse --enable-librabbitmq --enable-librsvg --enable-librubberband --enable-libshine --enable-libsnappy --enable-libsoxr --enable-libspeex --enable-libsrt --enable-libssh --enable-libtheora --enable-libtwolame --enable-libvidstab --enable-libvorbis --enable-libvpx --enable-libwavpack --enable-libwebp --enable-libx265 --enable-libxml2 --enable-libxvid --enable-libzmq --enable-libzvbi --enable-lv2 --enable-omx --enable-openal --enable-opencl --enable-opengl --enable-sdl2 --enable-mmal --enable-neon --enable-rpi --enable-v4l2-request --enable-libudev --enable-epoxy --enable-pocketsphinx --enable-libdc1394 --enable-libdrm --enable-vout-drm --enable-libiec61883 --enable-chromaprint --enable-frei0r --enable-libx264 --enable-shared --libdir=/usr/lib/arm-linux-gnueabihf --cpu=arm1176jzf-s --arch=arm
  WARNING: library configuration mismatch
  avutil      configuration: --prefix=/usr --extra-version=0+deb11u1+rpt3 --toolchain=hardened --incdir=/usr/include/arm-linux-gnueabihf --enable-gpl --disable-stripping --enable-avresample --disable-filter=resample --enable-gnutls --enable-ladspa --enable-libaom --enable-libass --enable-libbluray --enable-libbs2b --enable-libcaca --enable-libcdio --enable-libcodec2 --enable-libdav1d --enable-libflite --enable-libfontconfig --enable-libfreetype --enable-libfribidi --enable-libgme --enable-libgsm --enable-libjack --enable-libmp3lame --enable-libmysofa --enable-libopenjpeg --enable-libopenmpt --enable-libopus --enable-libpulse --enable-librabbitmq --enable-librsvg --enable-librubberband --enable-libshine --enable-libsnappy --enable-libsoxr --enable-libspeex --enable-libsrt --enable-libssh --enable-libtheora --enable-libtwolame --enable-libvidstab --enable-libvorbis --enable-libvpx --enable-libwavpack --enable-libwebp --enable-libx265 --enable-libxml2 --enable-libxvid --enable-libzmq --enable-libzvbi --enable-lv2 --enable-omx --enable-openal --enable-opencl --enable-opengl --enable-sdl2 --enable-mmal --enable-neon --enable-rpi --enable-v4l2-request --enable-libudev --enable-epoxy --enable-pocketsphinx --enable-libdc1394 --enable-libdrm --enable-vout-drm --enable-libiec61883 --enable-chromaprint --enable-frei0r --enable-libx264 --libdir=/usr/lib/arm-linux-gnueabihf/neon/vfp --cpu=cortex-a7 --arch=armv6t2 --disable-thumb --enable-shared --disable-doc --disable-programs
  avcodec     configuration: --prefix=/usr --extra-version=0+deb11u1+rpt3 --toolchain=hardened --incdir=/usr/include/arm-linux-gnueabihf --enable-gpl --disable-stripping --enable-avresample --disable-filter=resample --enable-gnutls --enable-ladspa --enable-libaom --enable-libass --enable-libbluray --enable-libbs2b --enable-libcaca --enable-libcdio --enable-libcodec2 --enable-libdav1d --enable-libflite --enable-libfontconfig --enable-libfreetype --enable-libfribidi --enable-libgme --enable-libgsm --enable-libjack --enable-libmp3lame --enable-libmysofa --enable-libopenjpeg --enable-libopenmpt --enable-libopus --enable-libpulse --enable-librabbitmq --enable-librsvg --enable-librubberband --enable-libshine --enable-libsnappy --enable-libsoxr --enable-libspeex --enable-libsrt --enable-libssh --enable-libtheora --enable-libtwolame --enable-libvidstab --enable-libvorbis --enable-libvpx --enable-libwavpack --enable-libwebp --enable-libx265 --enable-libxml2 --enable-libxvid --enable-libzmq --enable-libzvbi --enable-lv2 --enable-omx --enable-openal --enable-opencl --enable-opengl --enable-sdl2 --enable-mmal --enable-neon --enable-rpi --enable-v4l2-request --enable-libudev --enable-epoxy --enable-pocketsphinx --enable-libdc1394 --enable-libdrm --enable-vout-drm --enable-libiec61883 --enable-chromaprint --enable-frei0r --enable-libx264 --libdir=/usr/lib/arm-linux-gnueabihf/neon/vfp --cpu=cortex-a7 --arch=armv6t2 --disable-thumb --enable-shared --disable-doc --disable-programs
  avformat    configuration: --prefix=/usr --extra-version=0+deb11u1+rpt3 --toolchain=hardened --incdir=/usr/include/arm-linux-gnueabihf --enable-gpl --disable-stripping --enable-avresample --disable-filter=resample --enable-gnutls --enable-ladspa --enable-libaom --enable-libass --enable-libbluray --enable-libbs2b --enable-libcaca --enable-libcdio --enable-libcodec2 --enable-libdav1d --enable-libflite --enable-libfontconfig --enable-libfreetype --enable-libfribidi --enable-libgme --enable-libgsm --enable-libjack --enable-libmp3lame --enable-libmysofa --enable-libopenjpeg --enable-libopenmpt --enable-libopus --enable-libpulse --enable-librabbitmq --enable-librsvg --enable-librubberband --enable-libshine --enable-libsnappy --enable-libsoxr --enable-libspeex --enable-libsrt --enable-libssh --enable-libtheora --enable-libtwolame --enable-libvidstab --enable-libvorbis --enable-libvpx --enable-libwavpack --enable-libwebp --enable-libx265 --enable-libxml2 --enable-libxvid --enable-libzmq --enable-libzvbi --enable-lv2 --enable-omx --enable-openal --enable-opencl --enable-opengl --enable-sdl2 --enable-mmal --enable-neon --enable-rpi --enable-v4l2-request --enable-libudev --enable-epoxy --enable-pocketsphinx --enable-libdc1394 --enable-libdrm --enable-vout-drm --enable-libiec61883 --enable-chromaprint --enable-frei0r --enable-libx264 --libdir=/usr/lib/arm-linux-gnueabihf/neon/vfp --cpu=cortex-a7 --arch=armv6t2 --disable-thumb --enable-shared --disable-doc --disable-programs
  avdevice    configuration: --prefix=/usr --extra-version=0+deb11u1+rpt3 --toolchain=hardened --incdir=/usr/include/arm-linux-gnueabihf --enable-gpl --disable-stripping --enable-avresample --disable-filter=resample --enable-gnutls --enable-ladspa --enable-libaom --enable-libass --enable-libbluray --enable-libbs2b --enable-libcaca --enable-libcdio --enable-libcodec2 --enable-libdav1d --enable-libflite --enable-libfontconfig --enable-libfreetype --enable-libfribidi --enable-libgme --enable-libgsm --enable-libjack --enable-libmp3lame --enable-libmysofa --enable-libopenjpeg --enable-libopenmpt --enable-libopus --enable-libpulse --enable-librabbitmq --enable-librsvg --enable-librubberband --enable-libshine --enable-libsnappy --enable-libsoxr --enable-libspeex --enable-libsrt --enable-libssh --enable-libtheora --enable-libtwolame --enable-libvidstab --enable-libvorbis --enable-libvpx --enable-libwavpack --enable-libwebp --enable-libx265 --enable-libxml2 --enable-libxvid --enable-libzmq --enable-libzvbi --enable-lv2 --enable-omx --enable-openal --enable-opencl --enable-opengl --enable-sdl2 --enable-mmal --enable-neon --enable-rpi --enable-v4l2-request --enable-libudev --enable-epoxy --enable-pocketsphinx --enable-libdc1394 --enable-libdrm --enable-vout-drm --enable-libiec61883 --enable-chromaprint --enable-frei0r --enable-libx264 --libdir=/usr/lib/arm-linux-gnueabihf/neon/vfp --cpu=cortex-a7 --arch=armv6t2 --disable-thumb --enable-shared --disable-doc --disable-programs
  avfilter    configuration: --prefix=/usr --extra-version=0+deb11u1+rpt3 --toolchain=hardened --incdir=/usr/include/arm-linux-gnueabihf --enable-gpl --disable-stripping --enable-avresample --disable-filter=resample --enable-gnutls --enable-ladspa --enable-libaom --enable-libass --enable-libbluray --enable-libbs2b --enable-libcaca --enable-libcdio --enable-libcodec2 --enable-libdav1d --enable-libflite --enable-libfontconfig --enable-libfreetype --enable-libfribidi --enable-libgme --enable-libgsm --enable-libjack --enable-libmp3lame --enable-libmysofa --enable-libopenjpeg --enable-libopenmpt --enable-libopus --enable-libpulse --enable-librabbitmq --enable-librsvg --enable-librubberband --enable-libshine --enable-libsnappy --enable-libsoxr --enable-libspeex --enable-libsrt --enable-libssh --enable-libtheora --enable-libtwolame --enable-libvidstab --enable-libvorbis --enable-libvpx --enable-libwavpack --enable-libwebp --enable-libx265 --enable-libxml2 --enable-libxvid --enable-libzmq --enable-libzvbi --enable-lv2 --enable-omx --enable-openal --enable-opencl --enable-opengl --enable-sdl2 --enable-mmal --enable-neon --enable-rpi --enable-v4l2-request --enable-libudev --enable-epoxy --enable-pocketsphinx --enable-libdc1394 --enable-libdrm --enable-vout-drm --enable-libiec61883 --enable-chromaprint --enable-frei0r --enable-libx264 --libdir=/usr/lib/arm-linux-gnueabihf/neon/vfp --cpu=cortex-a7 --arch=armv6t2 --disable-thumb --enable-shared --disable-doc --disable-programs
  avresample  configuration: --prefix=/usr --extra-version=0+deb11u1+rpt3 --toolchain=hardened --incdir=/usr/include/arm-linux-gnueabihf --enable-gpl --disable-stripping --enable-avresample --disable-filter=resample --enable-gnutls --enable-ladspa --enable-libaom --enable-libass --enable-libbluray --enable-libbs2b --enable-libcaca --enable-libcdio --enable-libcodec2 --enable-libdav1d --enable-libflite --enable-libfontconfig --enable-libfreetype --enable-libfribidi --enable-libgme --enable-libgsm --enable-libjack --enable-libmp3lame --enable-libmysofa --enable-libopenjpeg --enable-libopenmpt --enable-libopus --enable-libpulse --enable-librabbitmq --enable-librsvg --enable-librubberband --enable-libshine --enable-libsnappy --enable-libsoxr --enable-libspeex --enable-libsrt --enable-libssh --enable-libtheora --enable-libtwolame --enable-libvidstab --enable-libvorbis --enable-libvpx --enable-libwavpack --enable-libwebp --enable-libx265 --enable-libxml2 --enable-libxvid --enable-libzmq --enable-libzvbi --enable-lv2 --enable-omx --enable-openal --enable-opencl --enable-opengl --enable-sdl2 --enable-mmal --enable-neon --enable-rpi --enable-v4l2-request --enable-libudev --enable-epoxy --enable-pocketsphinx --enable-libdc1394 --enable-libdrm --enable-vout-drm --enable-libiec61883 --enable-chromaprint --enable-frei0r --enable-libx264 --libdir=/usr/lib/arm-linux-gnueabihf/neon/vfp --cpu=cortex-a7 --arch=armv6t2 --disable-thumb --enable-shared --disable-doc --disable-programs
  swscale     configuration: --prefix=/usr --extra-version=0+deb11u1+rpt3 --toolchain=hardened --incdir=/usr/include/arm-linux-gnueabihf --enable-gpl --disable-stripping --enable-avresample --disable-filter=resample --enable-gnutls --enable-ladspa --enable-libaom --enable-libass --enable-libbluray --enable-libbs2b --enable-libcaca --enable-libcdio --enable-libcodec2 --enable-libdav1d --enable-libflite --enable-libfontconfig --enable-libfreetype --enable-libfribidi --enable-libgme --enable-libgsm --enable-libjack --enable-libmp3lame --enable-libmysofa --enable-libopenjpeg --enable-libopenmpt --enable-libopus --enable-libpulse --enable-librabbitmq --enable-librsvg --enable-librubberband --enable-libshine --enable-libsnappy --enable-libsoxr --enable-libspeex --enable-libsrt --enable-libssh --enable-libtheora --enable-libtwolame --enable-libvidstab --enable-libvorbis --enable-libvpx --enable-libwavpack --enable-libwebp --enable-libx265 --enable-libxml2 --enable-libxvid --enable-libzmq --enable-libzvbi --enable-lv2 --enable-omx --enable-openal --enable-opencl --enable-opengl --enable-sdl2 --enable-mmal --enable-neon --enable-rpi --enable-v4l2-request --enable-libudev --enable-epoxy --enable-pocketsphinx --enable-libdc1394 --enable-libdrm --enable-vout-drm --enable-libiec61883 --enable-chromaprint --enable-frei0r --enable-libx264 --libdir=/usr/lib/arm-linux-gnueabihf/neon/vfp --cpu=cortex-a7 --arch=armv6t2 --disable-thumb --enable-shared --disable-doc --disable-programs
  swresample  configuration: --prefix=/usr --extra-version=0+deb11u1+rpt3 --toolchain=hardened --incdir=/usr/include/arm-linux-gnueabihf --enable-gpl --disable-stripping --enable-avresample --disable-filter=resample --enable-gnutls --enable-ladspa --enable-libaom --enable-libass --enable-libbluray --enable-libbs2b --enable-libcaca --enable-libcdio --enable-libcodec2 --enable-libdav1d --enable-libflite --enable-libfontconfig --enable-libfreetype --enable-libfribidi --enable-libgme --enable-libgsm --enable-libjack --enable-libmp3lame --enable-libmysofa --enable-libopenjpeg --enable-libopenmpt --enable-libopus --enable-libpulse --enable-librabbitmq --enable-librsvg --enable-librubberband --enable-libshine --enable-libsnappy --enable-libsoxr --enable-libspeex --enable-libsrt --enable-libssh --enable-libtheora --enable-libtwolame --enable-libvidstab --enable-libvorbis --enable-libvpx --enable-libwavpack --enable-libwebp --enable-libx265 --enable-libxml2 --enable-libxvid --enable-libzmq --enable-libzvbi --enable-lv2 --enable-omx --enable-openal --enable-opencl --enable-opengl --enable-sdl2 --enable-mmal --enable-neon --enable-rpi --enable-v4l2-request --enable-libudev --enable-epoxy --enable-pocketsphinx --enable-libdc1394 --enable-libdrm --enable-vout-drm --enable-libiec61883 --enable-chromaprint --enable-frei0r --enable-libx264 --libdir=/usr/lib/arm-linux-gnueabihf/neon/vfp --cpu=cortex-a7 --arch=armv6t2 --disable-thumb --enable-shared --disable-doc --disable-programs
  postproc    configuration: --prefix=/usr --extra-version=0+deb11u1+rpt3 --toolchain=hardened --incdir=/usr/include/arm-linux-gnueabihf --enable-gpl --disable-stripping --enable-avresample --disable-filter=resample --enable-gnutls --enable-ladspa --enable-libaom --enable-libass --enable-libbluray --enable-libbs2b --enable-libcaca --enable-libcdio --enable-libcodec2 --enable-libdav1d --enable-libflite --enable-libfontconfig --enable-libfreetype --enable-libfribidi --enable-libgme --enable-libgsm --enable-libjack --enable-libmp3lame --enable-libmysofa --enable-libopenjpeg --enable-libopenmpt --enable-libopus --enable-libpulse --enable-librabbitmq --enable-librsvg --enable-librubberband --enable-libshine --enable-libsnappy --enable-libsoxr --enable-libspeex --enable-libsrt --enable-libssh --enable-libtheora --enable-libtwolame --enable-libvidstab --enable-libvorbis --enable-libvpx --enable-libwavpack --enable-libwebp --enable-libx265 --enable-libxml2 --enable-libxvid --enable-libzmq --enable-libzvbi --enable-lv2 --enable-omx --enable-openal --enable-opencl --enable-opengl --enable-sdl2 --enable-mmal --enable-neon --enable-rpi --enable-v4l2-request --enable-libudev --enable-epoxy --enable-pocketsphinx --enable-libdc1394 --enable-libdrm --enable-vout-drm --enable-libiec61883 --enable-chromaprint --enable-frei0r --enable-libx264 --libdir=/usr/lib/arm-linux-gnueabihf/neon/vfp --cpu=cortex-a7 --arch=armv6t2 --disable-thumb --enable-shared --disable-doc --disable-programs
  libavutil      56. 51.100 / 56. 51.100
  libavcodec     58. 91.100 / 58. 91.100
  libavformat    58. 45.100 / 58. 45.100
  libavdevice    58. 10.100 / 58. 10.100
  libavfilter     7. 85.100 /  7. 85.100
  libavresample   4.  0.  0 /  4.  0.  0
  libswscale      5.  7.100 /  5.  7.100
  libswresample   3.  7.100 /  3.  7.100
  libpostproc    55.  7.100 / 55.  7.100
Input #0, rawvideo, from 'pipe:':
  Duration: N/A, start: 0.000000, bitrate: 221184 kb/s
    Stream #0:0: Video: rawvideo (RGB[24] / 0x18424752), rgb24, 640x480, 221184 kb/s, 30 tbr, 30 tbn, 30 tbc
Stream mapping:
  Stream #0:0 -> #0:0 (rawvideo (native) -> h264 (libx264))
[libx264 @ 0x1ca6f20] using cpu capabilities: ARMv6 NEON
[libx264 @ 0x1ca6f20] profile High, level 3.0, 4:2:0, 8-bit
[libx264 @ 0x1ca6f20] 264 - core 160 r3011 cde9a93 - H.264/MPEG-4 AVC codec - Copyleft 2003-2020 - http://www.videolan.org/x264.html - options: cabac=1 ref=3 deblock=1:0:0 analyse=0x3:0x113 me=hex subme=7 psy=1 psy_rd=1.00:0.00 mixed_ref=1 me_range=16 chroma_me=1 trellis=1 8x8dct=1 cqm=0 deadzone=21,11 fast_pskip=1 chroma_qp_offset=-2 threads=6 lookahead_threads=1 sliced_threads=0 nr=0 decimate=1 interlaced=0 bluray_compat=0 constrained_intra=0 bframes=3 b_pyramid=2 b_adapt=1 b_bias=0 direct=1 weightb=1 open_gop=0 weightp=2 keyint=250 keyint_min=25 scenecut=40 intra_refresh=0 rc_lookahead=40 rc=crf mbtree=1 crf=15.0 qcomp=0.60 qpmin=0 qpmax=69 qpstep=4 ip_ratio=1.40 aq=1:1.00
Output #0, mp4, to '/home/pi/sketchbook/XenoScopeDish_Movie/xenomicroscope.mp4':
  Metadata:
    comment         : Made with Video Export for Processing - https://git.io/vAXLk
    encoder         : Lavf58.45.100
    Stream #0:0: Video: h264 (libx264) (avc1 / 0x31637661), yuv420p, 640x480, q=-1--1, 30 fps, 15360 tbn, 30 tbc
    Metadata:
      encoder         : Lavc58.91.100 libx264
    Side data:
      cpb: bitrate max/min/avg: 0/0/0 buffer size: 0 vbv_delay: N/A
frame=    4 fps=0.0 q=0.0 size=       0kB time=00:00:00.00 bitrate=N/A speed=   0x    frame=    8 fps=7.8 q=0.0 size=       0kB time=00:00:00.00 bitrate=N/A speed=   0x    frame=   11 fps=6.9 q=0.0 size=       0kB time=00:00:00.00 bitrate=N/A speed=   0x    frame=   15 fps=7.0 q=0.0 size=       0kB time=00:00:00.00 bitrate=N/A speed=   0x    frame=   19 fps=7.0 q=0.0 size=       0kB time=00:00:00.00 bitrate=N/A speed=   0x    frame=   23 fps=6.9 q=0.0 size=       0kB time=00:00:00.00 bitrate=N/A speed=   0x    frame=   28 fps=7.1 q=0.0 size=       0kB time=00:00:00.00 bitrate=N/A speed=   0x    frame=   32 fps=7.2 q=0.0 size=       0kB time=00:00:00.00 bitrate=N/A speed=   0x    frame=   36 fps=7.1 q=0.0 size=       0kB time=00:00:00.00 bitrate=N/A speed=   0x    frame=   40 fps=7.1 q=0.0 size=       0kB time=00:00:00.00 bitrate=N/A speed=   0x    frame=   44 fps=7.0 q=0.0 size=       0kB time=00:00:00.00 bitrate=N/A speed=   0x    frame=   47 fps=6.5 q=0.0 size=       0kB time=00:00:00.00 bitrate=N/A speed=   0x    frame=   51 fps=6.5 q=21.0 size=       0kB time=-00:00:00.06 bitrate=N/A speed=N/A    frame=   53 fps=6.2 q=21.0 size=       0kB time=00:00:00.00 bitrate=5907.7kbits/s speed=7.59e-06x    frame=   55 fps=5.8 q=21.0 size=     256kB time=00:00:00.06 bitrate=31432.2kbits/s speed=0.00709x    frame=   58 fps=5.7 q=21.0 size=     256kB time=00:00:00.16 bitrate=12580.3kbits/s speed=0.0165x    frame=   61 fps=5.5 q=21.0 size=     512kB time=00:00:00.26 bitrate=15726.2kbits/s speed=0.0239x    frame=   64 fps=5.4 q=21.0 size=     512kB time=00:00:00.36 bitrate=11438.0kbits/s speed=0.0309x    frame=   65 fps=5.1 q=21.0 size=     768kB time=00:00:00.40 bitrate=15727.0kbits/s speed=0.0316x    frame=   68 fps=5.1 q=21.0 size=     768kB time=00:00:00.50 bitrate=12582.0kbits/s speed=0.0378x    frame=   71 fps=5.0 q=21.0 size=    1024kB time=00:00:00.60 bitrate=13980.1kbits/s speed=0.0424x    frame=   72 fps=4.9 q=21.0 size=    1024kB time=00:00:00.63 bitrate=13244.4kbits/s speed=0.0427x    frame=   74 fps=4.8 q=21.0 size=    1024kB time=00:00:00.70 bitrate=11983.2kbits/s speed=0.0452x    frame=   77 fps=4.8 q=21.0 size=    1280kB time=00:00:00.80 bitrate=13106.6kbits/s speed=0.05x    frame=   78 fps=4.7 q=21.0 size=    1280kB time=00:00:00.83 bitrate=12582.4kbits/s speed=0.0497x    frame=   81 fps=4.7 q=21.0 size=    1536kB time=00:00:00.93 bitrate=13481.2kbits/s speed=0.0537x    frame=   83 fps=4.6 q=21.0 size=    1536kB time=00:00:01.00 bitrate=12582.5kbits/s speed=0.0557x    frame=   84 fps=4.5 q=21.0 size=    1536kB time=00:00:01.03 bitrate=12176.6kbits/s speed=0.0559x    frame=   86 fps=4.5 q=21.0 size=    1792kB time=00:00:01.10 bitrate=13345.1kbits/s speed=0.0572x    frame=   90 fps=4.4 q=21.0 size=    1792kB time=00:00:01.23 bitrate=11902.4kbits/s speed=0.0601x    frame=   92 fps=4.4 q=21.0 size=    2048kB time=00:00:01.30 bitrate=12905.2kbits/s speed=0.0618x    frame=   95 fps=4.3 q=21.0 size=    2048kB time=00:00:01.40 bitrate=11983.4kbits/s speed=0.0638x    frame=   98 fps=4.3 q=21.0 size=    2304kB time=00:00:01.50 bitrate=12582.6kbits/s speed=0.066x    frame=  100 fps=4.3 q=21.0 size=    2560kB time=00:00:01.56 bitrate=13385.8kbits/s speed=0.0672x    frame=  102 fps=4.2 q=21.0 size=    2560kB time=00:00:01.63 bitrate=12839.4kbits/s speed=0.0679x    frame=  105 fps=4.2 q=21.0 size=    2816kB time=00:00:01.73 bitrate=13308.6kbits/s speed=0.0689x    frame=  108 fps=4.2 q=21.0 size=    2816kB time=00:00:01.83 bitrate=12582.7kbits/s speed=0.0713x    frame=  109 fps=4.1 q=21.0 size=    2816kB time=00:00:01.86 bitrate=12358.0kbits/s speed=0.0708x    frame=  111 fps=4.1 q=18.0 size=    3072kB time=00:00:01.93 bitrate=13016.6kbits/s speed=0.0714x    frame=  113 fps=4.1 q=21.0 size=    3072kB time=00:00:02.00 bitrate=12582.7kbits/s speed=0.0718x    frame=  116 fps=4.1 q=21.0 size=    3328kB time=00:00:02.10 bitrate=12982.2kbits/s speed=0.0738x    frame=  118 fps=4.0 q=18.0 size=    3328kB time=00:00:02.16 bitrate=12582.7kbits/s speed=0.0732x    frame=  120 fps=4.0 q=21.0 size=    3584kB time=00:00:02.23 bitrate=13146.1kbits/s speed=0.074x    frame=  124 fps=4.0 q=21.0 size=    3840kB time=00:00:02.36 bitrate=13291.6kbits/s speed=0.0769x    frame=  126 fps=4.0 q=21.0 size=    3840kB time=00:00:02.43 bitrate=12927.5kbits/s speed=0.0765x    frame=  129 fps=4.0 q=21.0 size=    4096kB time=00:00:02.53 bitrate=13245.0kbits/s speed=0.078x    frame=  130 fps=3.9 q=21.0 size=    4096kB time=00:00:02.56 bitrate=13073.0kbits/s speed=0.0773x    frame=  133 fps=3.9 q=21.0 size=    4096kB time=00:00:02.66 bitrate=12582.7kbits/s speed=0.0791x    frame=  134 fps=3.9 q=21.0 size=    4352kB time=00:00:02.70 bitrate=13204.1kbits/s speed=0.0787x    frame=  136 fps=3.9 q=18.0 size=    4352kB time=00:00:02.76 bitrate=12885.9kbits/s speed=0.0783x    frame=  139 fps=3.9 q=21.0 size=    4608kB time=00:00:02.86 bitrate=13168.0kbits/s speed=0.08x    frame=  143 fps=3.8 q=21.0 size=    4864kB time=00:00:03.00 bitrate=13281.8kbits/s speed=0.0802x    frame=  145 fps=3.8 q=21.0 size=    4864kB time=00:00:03.06 bitrate=12993.1kbits/s speed=0.0807x    frame=  148 fps=3.8 q=21.0 size=    5120kB time=00:00:03.16 bitrate=13245.0kbits/s speed=0.082x    frame=  150 fps=3.8 q=21.0 size=    5120kB time=00:00:03.23 bitrate=12971.9kbits/s speed=0.0825x    frame=  152 fps=3.8 q=21.0 size=    5376kB time=00:00:03.30 bitrate=13345.4kbits/s speed=0.0829x    frame=  154 fps=3.8 q=21.0 size=    5376kB time=00:00:03.36 bitrate=13081.1kbits/s speed=0.0833x    frame=  155 fps=3.8 q=21.0 size=    5376kB time=00:00:03.40 bitrate=12952.9kbits/s speed=0.0826x    frame=  157 fps=3.8 q=21.0 size=    5632kB time=00:00:03.46 bitrate=13308.7kbits/s speed=0.0831x    frame=  159 fps=3.8 q=21.0 size=    5632kB time=00:00:03.53 bitrate=13057.6kbits/s speed=0.0836x    frame=  161 fps=3.7 q=21.0 size=    5632kB time=00:00:03.60 bitrate=12815.8kbits/s speed=0.0835x    frame=  165 fps=3.8 q=21.0 size=    5888kB time=00:00:03.73 bitrate=12919.8kbits/s speed=0.0851x    frame=  166 fps=3.7 q=21.0 size=    6144kB time=00:00:03.76 bitrate=13362.3kbits/s speed=0.0846x    frame=  168 fps=3.7 q=21.0 size=    6144kB time=00:00:03.83 bitrate=13129.9kbits/s speed=0.084x    frame=  172 fps=3.7 q=18.0 size=    6400kB time=00:00:03.96 bitrate=13217.2kbits/s speed=0.0854x    frame=  174 fps=3.7 q=21.0 size=    6400kB time=00:00:04.03 bitrate=12998.8kbits/s speed=0.0853x    frame=  177 fps=3.7 q=21.0 size=    6656kB time=00:00:04.13 bitrate=13191.6kbits/s speed=0.0859x    frame=  180 fps=3.7 q=21.0 size=    6912kB time=00:00:04.23 bitrate=13375.4kbits/s speed=0.0866x    frame=  182 fps=3.7 q=21.0 size=    6912kB time=00:00:04.30 bitrate=13168.1kbits/s speed=0.0867x    frame=  184 fps=3.7 q=21.0 size=    6912kB time=00:00:04.36 bitrate=12967.0kbits/s speed=0.0868x    frame=  186 fps=3.6 q=21.0 size=    7168kB time=00:00:04.43 bitrate=13245.1kbits/s speed=0.0867x    frame=  189 fps=3.6 q=18.0 size=    7168kB time=00:00:04.53 bitrate=12952.9kbits/s speed=0.0874x    frame=  191 fps=3.6 q=21.0 size=    7424kB time=00:00:04.60 bitrate=13221.1kbits/s speed=0.0874x    frame=  192 fps=3.6 q=21.0 size=    7424kB time=00:00:04.63 bitrate=13126.0kbits/s speed=0.0872x    frame=  195 fps=3.6 q=18.0 size=    7680kB time=00:00:04.73 bitrate=13291.7kbits/s speed=0.0883x    frame=  196 fps=3.6 q=21.0 size=    7680kB time=00:00:04.76 bitrate=13198.8kbits/s speed=0.088x    frame=  197 fps=3.6 q=21.0 size=    7680kB time=00:00:04.80 bitrate=13107.1kbits/s speed=0.0867x    frame=  200 fps=3.6 q=21.0 size=    7936kB time=00:00:04.90 bitrate=13267.6kbits/s speed=0.0872x    frame=  203 fps=3.6 q=21.0 size=    8192kB time=00:00:05.00 bitrate=13421.7kbits/s speed=0.088x    frame=  206 fps=3.6 q=21.0 size=    8192kB time=00:00:05.10 bitrate=13158.5kbits/s speed=0.0884x    frame=  208 fps=3.6 q=21.0 size=    8448kB time=00:00:05.16 bitrate=13394.6kbits/s speed=0.0887x    frame=  210 fps=3.5 q=21.0 size=    8448kB time=00:00:05.23 bitrate=13224.0kbits/s speed=0.0883x    frame=  213 fps=3.5 q=21.0 size=    8704kB time=00:00:05.33 bitrate=13369.3kbits/s speed=0.0887x    frame=  214 fps=3.5 q=18.0 size=    8704kB time=00:00:05.36 bitrate=13286.2kbits/s speed=0.0884x    frame=  217 fps=3.5 q=21.0 size=    8960kB time=00:00:05.46 bitrate=13426.8kbits/s speed=0.0888x    frame=  219 fps=3.5 q=21.0 size=    8960kB time=00:00:05.53 bitrate=13265.0kbits/s speed=0.089x    frame=  221 fps=3.5 q=21.0 size=    9216kB time=00:00:05.60 bitrate=13481.6kbits/s speed=0.0888x    frame=  223 fps=3.5 q=18.0 size=    9216kB time=00:00:05.66 bitrate=13323.0kbits/s speed=0.0891x    frame=  226 fps=3.5 q=21.0 size=    9472kB time=00:00:05.76 bitrate=13455.6kbits/s speed=0.0899x    frame=  227 fps=3.5 q=21.0 size=    9472kB time=00:00:05.80 bitrate=13378.3kbits/s speed=0.0895x    frame=  230 fps=3.5 q=21.0 size=    9728kB time=00:00:05.90 bitrate=13507.0kbits/s speed=0.0902x    frame=  233 fps=3.5 q=21.0 size=    9728kB time=00:00:06.00 bitrate=13281.9kbits/s speed=0.0903x    frame=  235 fps=3.5 q=21.0 size=    9984kB time=00:00:06.06 bitrate=13481.6kbits/s speed=0.09x    frame=  238 fps=3.5 q=21.0 size=   10240kB time=00:00:06.16 bitrate=13603.1kbits/s speed=0.0907x    frame=  240 fps=3.5 q=21.0 size=   10240kB time=00:00:06.23 bitrate=13457.6kbits/s speed=0.0906x    frame=  242 fps=3.5 q=21.0 size=   10240kB time=00:00:06.30 bitrate=13315.2kbits/s speed=0.0903x    frame=  244 fps=3.5 q=21.0 size=   10496kB time=00:00:06.36 bitrate=13505.1kbits/s speed=0.0905x    frame=  246 fps=3.5 q=18.0 size=   10496kB time=00:00:06.43 bitrate=13365.2kbits/s speed=0.0905x    frame=  248 fps=3.5 q=21.0 size=   10752kB time=00:00:06.50 bitrate=13550.8kbits/s speed=0.0908x    frame=  252 fps=3.5 q=21.0 size=   11008kB time=00:00:06.63 bitrate=13594.5kbits/s speed=0.0915x    frame=  253 fps=3.5 q=18.0 size=   11008kB time=00:00:06.66 bitrate=13526.6kbits/s speed=0.0912x    frame=  255 fps=3.5 q=21.0 size=   11008kB time=00:00:06.73 bitrate=13392.6kbits/s speed=0.0912x    frame=  260 fps=3.5 q=21.0 size=   11264kB time=00:00:06.90 bitrate=13373.1kbits/s speed=0.092x    frame=  262 fps=3.5 q=21.0 size=   11520kB time=00:00:06.96 bitrate=13546.1kbits/s speed=0.0922x    frame=  264 fps=3.5 q=21.0 size=   11520kB time=00:00:07.03 bitrate=13417.7kbits/s speed=0.0923x    frame=  266 fps=3.5 q=21.0 size=   11776kB time=00:00:07.10 bitrate=13587.1kbits/s speed=0.0924x    frame=  267 fps=3.4 q=18.0 size=   11776kB time=00:00:07.13 bitrate=13523.6kbits/s speed=0.092x    frame=  270 fps=3.5 q=21.0 size=   12032kB time=00:00:07.23 bitrate=13626.6kbits/s speed=0.0926x    frame=  272 fps=3.5 q=21.0 size=   12032kB time=00:00:07.30 bitrate=13502.1kbits/s speed=0.0928x    frame=  274 fps=3.4 q=21.0 size=   12288kB time=00:00:07.36 bitrate=13664.6kbits/s speed=0.0922x    frame=  276 fps=3.4 q=21.0 size=   12288kB time=00:00:07.43 bitrate=13542.1kbits/s speed=0.0924x    frame=  280 fps=3.4 q=21.0 size=   12544kB time=00:00:07.56 bitrate=13580.6kbits/s speed=0.0925x    frame=  282 fps=3.4 q=21.0 size=   12544kB time=00:00:07.63 bitrate=13462.0kbits/s speed=0.0927x    frame=  285 fps=3.4 q=21.0 size=   12800kB time=00:00:07.73 bitrate=13559.1kbits/s speed=0.0929x    frame=  286 fps=3.4 q=21.0 size=   12800kB time=00:00:07.76 bitrate=13500.9kbits/s speed=0.0927x    frame=  290 fps=3.4 q=21.0 size=   13056kB time=00:00:07.90 bitrate=13538.5kbits/s speed=0.0936x    frame=  292 fps=3.4 q=21.0 size=   13312kB time=00:00:07.96 bitrate=13688.5kbits/s speed=0.0933x    frame=  294 fps=3.4 q=21.0 size=   13312kB time=00:00:08.03 bitrate=13574.9kbits/s speed=0.0933x    frame=  297 fps=3.4 q=21.0 size=   13568kB time=00:00:08.13 bitrate=13665.8kbits/s speed=0.0938x    frame=  298 fps=3.4 q=21.0 size=   13568kB time=00:00:08.16 bitrate=13610.0kbits/s speed=0.0936x    frame=  299 fps=3.4 q=18.0 size=   13568kB time=00:00:08.20 bitrate=13554.7kbits/s speed=0.0933x    frame=  303 fps=3.4 q=21.0 size=   13824kB time=00:00:08.33 bitrate=13589.5kbits/s speed=0.0942x    frame=  304 fps=3.4 q=21.0 size=   13824kB time=00:00:08.36 bitrate=13535.3kbits/s speed=0.0938x    frame=  307 fps=3.4 q=21.0 size=   14080kB time=00:00:08.46 bitrate=13623.2kbits/s speed=0.0941x    frame=  308 fps=3.4 q=21.0 size=   14080kB time=00:00:08.50 bitrate=13569.7kbits/s speed=0.0938x    frame=  312 fps=3.4 q=21.0 size=   14336kB time=00:00:08.63 bitrate=13603.1kbits/s speed=0.0947x    frame=  314 fps=3.4 q=21.0 size=   14336kB time=00:00:08.70 bitrate=13498.9kbits/s speed=0.0947x    frame=  315 fps=3.4 q=21.0 size=   14592kB time=00:00:08.73 bitrate=13687.5kbits/s speed=0.0945x    frame=  318 fps=3.4 q=21.0 size=   14592kB time=00:00:08.83 bitrate=13532.5kbits/s speed=0.095x    frame=  320 fps=3.4 q=18.0 size=   14848kB time=00:00:08.90 bitrate=13666.8kbits/s speed=0.095x    frame=  321 fps=3.4 q=21.0 size=   14848kB time=00:00:08.93 bitrate=13615.8kbits/s speed=0.0944x    frame=  324 fps=3.4 q=21.0 size=   15104kB time=00:00:09.03 bitrate=13697.2kbits/s speed=0.0949x    frame=  327 fps=3.4 q=18.0 size=   15104kB time=00:00:09.13 bitrate=13547.2kbits/s speed=0.0945x    frame=  329 fps=3.4 q=21.0 size=   15360kB time=00:00:09.20 bitrate=13677.0kbits/s speed=0.0946x    frame=  333 fps=3.4 q=21.0 size=   15616kB time=00:00:09.33 bitrate=13706.3kbits/s speed=0.0951x    frame=  334 fps=3.4 q=21.0 size=   15616kB time=00:00:09.36 bitrate=13657.6kbits/s speed=0.0949x    frame=  337 fps=3.4 q=21.0 size=   15872kB time=00:00:09.46 bitrate=13734.8kbits/s speed=0.0954x    frame=  340 fps=3.4 q=21.0 size=   15872kB time=00:00:09.56 bitrate=13591.2kbits/s speed=0.0953x    frame=  343 fps=3.4 q=21.0 size=   16128kB time=00:00:09.66 bitrate=13667.6kbits/s speed=0.0956x    frame=  346 fps=3.4 q=21.0 size=   16384kB time=00:00:09.76 bitrate=13742.4kbits/s speed=0.0957x    frame=  347 fps=3.4 q=21.0 size=   16384kB time=00:00:09.80 bitrate=13695.6kbits/s speed=0.0952x    frame=  349 fps=3.4 q=21.0 size=   16384kB time=00:00:09.86 bitrate=13603.1kbits/s speed=0.0954x    frame=  352 fps=3.4 q=21.0 size=   16640kB time=00:00:09.96 bitrate=13677.0kbits/s speed=0.0955x    frame=  355 fps=3.4 q=21.0 size=   16896kB time=00:00:10.06 bitrate=13749.5kbits/s speed=0.0957x    frame=  358 fps=3.4 q=21.0 size=   16896kB time=00:00:10.16 bitrate=13614.2kbits/s speed=0.0957x    frame=  361 fps=3.4 q=18.0 size=   17152kB time=00:00:10.26 bitrate=13685.9kbits/s speed=0.0961x    frame=  362 fps=3.4 q=21.0 size=   17152kB time=00:00:10.30 bitrate=13641.6kbits/s speed=0.0958x    frame=  365 fps=3.4 q=21.0 size=   17408kB time=00:00:10.40 bitrate=13712.1kbits/s speed=0.0962x    frame=  368 fps=3.4 q=21.0 size=   17664kB time=00:00:10.50 bitrate=13781.2kbits/s speed=0.0966x    frame=  369 fps=3.4 q=21.0 size=   17664kB time=00:00:10.53 bitrate=13737.6kbits/s speed=0.0962x    frame=  372 fps=3.4 q=21.0 size=   17664kB time=00:00:10.63 bitrate=13608.4kbits/s speed=0.0964x    frame=  375 fps=3.4 q=21.0 size=   17920kB time=00:00:10.73 bitrate=13677.0kbits/s speed=0.0965x    frame=  377 fps=3.4 q=21.0 size=   17920kB time=00:00:10.80 bitrate=13592.6kbits/s speed=0.0963x    frame=  380 fps=3.4 q=18.0 size=   18176kB time=00:00:10.90 bitrate=13660.3kbits/s speed=0.0967x    frame=  381 fps=3.4 q=21.0 size=   18176kB time=00:00:10.93 bitrate=13618.7kbits/s speed=0.0964x    frame=  383 fps=3.4 q=21.0 size=   18432kB time=00:00:11.00 bitrate=13726.8kbits/s speed=0.0964x    frame=  387 fps=3.4 q=21.0 size=   18688kB time=00:00:11.13 bitrate=13750.7kbits/s speed=0.0968x    frame=  388 fps=3.4 q=21.0 size=   18688kB time=00:00:11.16 bitrate=13709.7kbits/s speed=0.0964x    frame=  392 fps=3.4 q=21.0 size=   18944kB time=00:00:11.30 bitrate=13733.5kbits/s speed=0.0971x    frame=  395 fps=3.4 q=21.0 size=   18944kB time=00:00:11.40 bitrate=13613.0kbits/s speed=0.097x    frame=  397 fps=3.4 q=21.0 size=   19200kB time=00:00:11.46 bitrate=13716.8kbits/s speed=0.0971x    frame=  398 fps=3.4 q=21.0 size=   19200kB time=00:00:11.50 bitrate=13677.0kbits/s speed=0.097x    frame=  401 fps=3.4 q=21.0 size=   19456kB time=00:00:11.60 bitrate=13739.9kbits/s speed=0.0974x    frame=  402 fps=3.4 q=21.0 size=   19456kB time=00:00:11.63 bitrate=13700.5kbits/s speed=0.097x    frame=  405 fps=3.4 q=21.0 size=   19456kB time=00:00:11.73 bitrate=13583.8kbits/s speed=0.0971x    frame=  407 fps=3.4 q=21.0 size=   19712kB time=00:00:11.80 bitrate=13684.8kbits/s speed=0.0972x    frame=  411 fps=3.4 q=21.0 size=   19968kB time=00:00:11.93 bitrate=13707.6kbits/s speed=0.0974x    frame=  414 fps=3.4 q=21.0 size=   19968kB time=00:00:12.03 bitrate=13593.7kbits/s speed=0.0978x    frame=  415 fps=3.4 q=21.0 size=   20224kB time=00:00:12.06 bitrate=13729.9kbits/s speed=0.0975x    frame=  416 fps=3.3 q=18.0 size=   20224kB time=00:00:12.10 bitrate=13692.1kbits/s speed=0.0974x    frame=  419 fps=3.4 q=21.0 size=   20224kB time=00:00:12.20 bitrate=13579.9kbits/s speed=0.0977x    frame=  421 fps=3.4 q=21.0 size=   20480kB time=00:00:12.26 bitrate=13677.0kbits/s speed=0.0977x    frame=  424 fps=3.4 q=21.0 size=   20480kB time=00:00:12.36 bitrate=13566.4kbits/s speed=0.0979x    frame=  427 fps=3.4 q=21.0 size=   20736kB time=00:00:12.46 bitrate=13625.8kbits/s speed=0.0981x    frame=  428 fps=3.3 q=21.0 size=   20736kB time=00:00:12.50 bitrate=13589.5kbits/s speed=0.0978x    frame=  431 fps=3.4 q=21.0 size=   20992kB time=00:00:12.60 bitrate=13648.1kbits/s speed=0.0981x    frame=  433 fps=3.4 q=21.0 size=   20992kB time=00:00:12.66 bitrate=13576.3kbits/s speed=0.0982x    frame=  434 fps=3.3 q=18.0 size=   21248kB time=00:00:12.70 bitrate=13705.8kbits/s speed=0.0978x    frame=  436 fps=3.3 q=21.0 size=   21248kB time=00:00:12.76 bitrate=13634.2kbits/s speed=0.0978x    frame=  439 fps=3.3 q=21.0 size=   21504kB time=00:00:12.86 bitrate=13691.2kbits/s speed=0.0981x    frame=  441 fps=3.3 q=21.0 size=   21504kB time=00:00:12.93 bitrate=13620.6kbits/s speed=0.0979x    frame=  444 fps=3.3 q=21.0 size=   21760kB time=00:00:13.03 bitrate=13677.0kbits/s speed=0.0982x    frame=  447 fps=3.3 q=21.0 size=   21760kB time=00:00:13.13 bitrate=13572.9kbits/s speed=0.098x    frame=  451 fps=3.3 q=21.0 size=   22016kB time=00:00:13.26 bitrate=13594.6kbits/s speed=0.0985x    frame=  453 fps=3.3 q=21.0 size=   22272kB time=00:00:13.33 bitrate=13683.9kbits/s speed=0.0983x    frame=  454 fps=3.3 q=21.0 size=   22272kB time=00:00:13.36 bitrate=13649.8kbits/s speed=0.0982x    frame=  457 fps=3.3 q=21.0 size=   22272kB time=00:00:13.46 bitrate=13548.4kbits/s speed=0.0983x    frame=  459 fps=3.3 q=21.0 size=   22528kB time=00:00:13.53 bitrate=13636.6kbits/s speed=0.0984x    frame=  460 fps=3.3 q=21.0 size=   22528kB time=00:00:13.56 bitrate=13603.1kbits/s speed=0.0982x    frame=  463 fps=3.3 q=21.0 size=   22784kB time=00:00:13.66 bitrate=13657.0kbits/s speed=0.0983x    frame=  466 fps=3.3 q=21.0 size=   22784kB time=00:00:13.76 bitrate=13557.8kbits/s speed=0.0982x    frame=  469 fps=3.3 q=21.0 size=   23040kB time=00:00:13.86 bitrate=13611.3kbits/s speed=0.0985x    frame=  471 fps=3.3 q=21.0 size=   23040kB time=00:00:13.93 bitrate=13546.2kbits/s speed=0.0986x    frame=  472 fps=3.3 q=21.0 size=   23296kB time=00:00:13.96 bitrate=13664.0kbits/s speed=0.0984x    frame=  475 fps=3.3 q=21.0 size=   23296kB time=00:00:14.06 bitrate=13566.8kbits/s speed=0.0988x    frame=  477 fps=3.3 q=21.0 size=   23552kB time=00:00:14.13 bitrate=13651.2kbits/s speed=0.0989x    frame=  479 fps=3.3 q=21.0 size=   23552kB time=00:00:14.20 bitrate=13587.1kbits/s speed=0.0985x    frame=  482 fps=3.3 q=21.0 size=   23808kB time=00:00:14.30 bitrate=13638.8kbits/s speed=0.0987x    frame=  484 fps=3.3 q=21.0 size=   23808kB time=00:00:14.36 bitrate=13575.5kbits/s speed=0.0988x    frame=  487 fps=3.3 q=18.0 size=   24064kB time=00:00:14.46 bitrate=13626.6kbits/s speed=0.0991x    frame=  488 fps=3.3 q=21.0 size=   24064kB time=00:00:14.50 bitrate=13595.3kbits/s speed=0.0989x    frame=  490 fps=3.3 q=21.0 size=   24320kB time=00:00:14.56 bitrate=13677.0kbits/s speed=0.0989x    frame=  491 fps=3.3 q=21.0 size=   24320kB time=00:00:14.60 bitrate=13645.8kbits/s speed=0.0987x    frame=  495 fps=3.3 q=21.0 size=   24576kB time=00:00:14.73 bitrate=13664.7kbits/s speed=0.0989x    frame=  498 fps=3.3 q=21.0 size=   24576kB time=00:00:14.83 bitrate=13572.5kbits/s speed=0.099x    frame=  501 fps=3.3 q=21.0 size=   24832kB time=00:00:14.93 bitrate=13622.1kbits/s speed=0.0991x    frame=  504 fps=3.3 q=21.0 size=   25088kB time=00:00:15.03 bitrate=13671.0kbits/s speed=0.099x    frame=  507 fps=3.3 q=21.0 size=   25088kB time=00:00:15.13 bitrate=13580.6kbits/s speed=0.0992x    frame=  509 fps=3.3 q=21.0 size=   25344kB time=00:00:15.20 bitrate=13659.0kbits/s speed=0.0991x    frame=  511 fps=3.3 q=21.0 size=   25344kB time=00:00:15.26 bitrate=13599.4kbits/s speed=0.0992x    frame=  513 fps=3.3 q=21.0 size=   25600kB time=00:00:15.33 bitrate=13677.0kbits/s speed=0.0992x    frame=  515 fps=3.3 q=21.0 size=   25600kB time=00:00:15.40 bitrate=13617.8kbits/s speed=0.0991x    frame=  518 fps=3.3 q=18.0 size=   25856kB time=00:00:15.50 bitrate=13665.3kbits/s speed=0.0994x    frame=  519 fps=3.3 q=21.0 size=   25856kB time=00:00:15.53 bitrate=13636.0kbits/s speed=0.0992x    frame=  522 fps=3.3 q=21.0 size=   26112kB time=00:00:15.63 bitrate=13682.9kbits/s speed=0.0995x    frame=  523 fps=3.3 q=21.0 size=   26112kB time=00:00:15.66 bitrate=13653.8kbits/s speed=0.0993x    frame=  526 fps=3.3 q=21.0 size=   26112kB time=00:00:15.76 bitrate=13567.2kbits/s speed=0.0996x    frame=  529 fps=3.3 q=21.0 size=   26368kB time=00:00:15.86 bitrate=13613.8kbits/s speed=0.0997x    frame=  530 fps=3.3 q=21.0 size=   26368kB time=00:00:15.90 bitrate=13585.3kbits/s speed=0.0994x    frame=  534 fps=3.3 q=21.0 size=   26624kB time=00:00:16.03 bitrate=13603.1kbits/s speed=0.0995x    frame=  536 fps=3.3 q=21.0 size=   26880kB time=00:00:16.10 bitrate=13677.0kbits/s speed=0.0995x    frame=  538 fps=3.3 q=21.0 size=   26880kB time=00:00:16.16 bitrate=13620.6kbits/s speed=0.0994x    frame=  541 fps=3.3 q=18.0 size=   27136kB time=00:00:16.26 bitrate=13665.8kbits/s speed=0.0996x    frame=  543 fps=3.3 q=21.0 size=   27136kB time=00:00:16.33 bitrate=13610.1kbits/s speed=0.0996x    frame=  545 fps=3.3 q=21.0 size=   27136kB time=00:00:16.40 bitrate=13554.7kbits/s speed=0.0996x    frame=  548 fps=3.3 q=21.0 size=   27392kB time=00:00:16.50 bitrate=13599.7kbits/s speed=0.0996x    frame=  552 fps=3.3 q=21.0 size=   27648kB time=00:00:16.63 bitrate=13616.7kbits/s speed=0.0999x    frame=  555 fps=3.3 q=21.0 size=   27904kB time=00:00:16.73 bitrate=13660.7kbits/s speed=0.0997x    frame=  557 fps=3.3 q=21.0 size=   27904kB time=00:00:16.80 bitrate=13606.5kbits/s speed=0.0997x    frame=  560 fps=3.3 q=21.0 size=   28160kB time=00:00:16.90 bitrate=13650.1kbits/s speed= 0.1x    frame=  561 fps=3.3 q=18.0 size=   28160kB time=00:00:16.93 bitrate=13623.2kbits/s speed=0.0998x    frame=  563 fps=3.3 q=21.0 size=   28160kB time=00:00:17.00 bitrate=13569.8kbits/s speed=0.0996x    frame=  565 fps=3.3 q=21.0 size=   28416kB time=00:00:17.06 bitrate=13639.7kbits/s speed=0.0996x    frame=  569 fps=3.3 q=18.0 size=   28672kB time=00:00:17.20 bitrate=13655.8kbits/s speed=0.0998x    frame=  571 fps=3.3 q=21.0 size=   28672kB time=00:00:17.26 bitrate=13603.1kbits/s speed=0.0998x    frame=  574 fps=3.3 q=21.0 size=   28928kB time=00:00:17.36 bitrate=13645.5kbits/s speed= 0.1x    frame=  576 fps=3.3 q=21.0 size=   28928kB time=00:00:17.43 bitrate=13593.4kbits/s speed= 0.1x    frame=  577 fps=3.3 q=21.0 size=   29184kB time=00:00:17.46 bitrate=13687.5kbits/s speed= 0.1x    frame=  580 fps=3.3 q=21.0 size=   29184kB time=00:00:17.56 bitrate=13609.6kbits/s speed= 0.1x    frame=  582 fps=3.3 q=21.0 size=   29440kB time=00:00:17.63 bitrate=13677.0kbits/s speed= 0.1x    frame=  583 fps=3.3 q=21.0 size=   29440kB time=00:00:17.66 bitrate=13651.2kbits/s speed=0.0999x    frame=  586 fps=3.3 q=21.0 size=   29440kB time=00:00:17.76 bitrate=13574.4kbits/s speed= 0.1x    frame=  588 fps=3.3 q=21.0 size=   29696kB time=00:00:17.83 bitrate=13641.3kbits/s speed= 0.1x    frame=  589 fps=3.3 q=21.0 size=   29696kB time=00:00:17.86 bitrate=13615.8kbits/s speed= 0.1x    frame=  591 fps=3.3 q=21.0 size=   29952kB time=00:00:17.93 bitrate=13682.1kbits/s speed=0.0999x    frame=  594 fps=3.3 q=18.0 size=   29952kB time=00:00:18.03 bitrate=13606.3kbits/s speed= 0.1x    frame=  595 fps=3.1 q=-1.0 Lsize=   32907kB time=00:00:19.73 bitrate=13660.8kbits/s speed=0.104x    
video:32899kB audio:0kB subtitle:0kB other streams:0kB global headers:0kB muxing overhead: 0.024361%
[libx264 @ 0x1ca6f20] frame I:53    Avg QP:18.73  size: 84564
[libx264 @ 0x1ca6f20] frame P:171   Avg QP:21.80  size: 59553
[libx264 @ 0x1ca6f20] frame B:371   Avg QP:22.24  size: 51273
[libx264 @ 0x1ca6f20] consecutive B-frames: 14.3%  6.4%  4.0% 75.3%
[libx264 @ 0x1ca6f20] mb I  I16..4:  0.3% 37.4% 62.3%
[libx264 @ 0x1ca6f20] mb P  I16..4:  0.1% 40.3% 46.7%  P16..4:  2.6%  5.6%  4.6%  0.0%  0.0%    skip: 0.0%
[libx264 @ 0x1ca6f20] mb B  I16..4:  0.0% 15.7% 31.5%  B16..8: 11.0% 18.3% 14.3%  direct: 9.1%  skip: 0.0%  L0:35.9% L1:29.6% BI:34.5%
[libx264 @ 0x1ca6f20] 8x8 transform intra:38.9% inter:48.3%
[libx264 @ 0x1ca6f20] coded y,uvDC,uvAC intra: 99.0% 99.9% 98.4% inter: 94.2% 85.8% 39.8%
[libx264 @ 0x1ca6f20] i16 v,h,dc,p:  9%  6%  6% 79%
[libx264 @ 0x1ca6f20] i8 v,h,dc,ddl,ddr,vr,hd,vl,hu: 12% 13%  8%  8% 12% 11% 13% 11% 14%
[libx264 @ 0x1ca6f20] i4 v,h,dc,ddl,ddr,vr,hd,vl,hu: 13% 13% 10%  8% 11% 11% 11% 10% 11%
[libx264 @ 0x1ca6f20] i8c dc,h,v,p: 60% 16% 15%  9%
[libx264 @ 0x1ca6f20] Weighted P-Frames: Y:15.8% UV:2.9%
[libx264 @ 0x1ca6f20] ref P L0: 41.6% 25.3% 16.8% 14.1%  2.1%
[libx264 @ 0x1ca6f20] ref B L0: 90.7%  6.9%  2.3%
[libx264 @ 0x1ca6f20] ref B L1: 96.3%  3.7%
[libx264 @ 0x1ca6f20] kb/s:13588.40
Exiting normally, received signal 15.
